# Blender v2.81 (sub 16) OBJ File: 'Hud Watch.blend'
# www.blender.org
mtllib Hud Watch.mtl
o Hud_Watch_Cube.001
v 0.232816 -0.100000 -0.142162
v 0.232816 -0.100000 0.138862
v -0.241342 -0.100000 -0.142162
v -0.241342 -0.100000 0.138862
v 0.304775 0.108614 -0.129578
v 0.242687 0.108614 -0.191666
v 0.217531 0.138037 -0.104423
v 0.287442 0.114873 -0.151674
v 0.278793 0.122972 -0.121598
v 0.269690 0.124829 -0.142505
v 0.234707 0.122972 -0.165684
v 0.264782 0.114873 -0.174334
v 0.255613 0.124829 -0.156582
v 0.246902 0.133727 -0.112403
v 0.225511 0.133727 -0.133794
v 0.249887 0.130909 -0.136778
v 0.242687 0.108614 0.188366
v 0.304775 0.108614 0.126278
v 0.217531 0.138037 0.101123
v 0.264782 0.114873 0.171034
v 0.234707 0.122972 0.162384
v 0.255613 0.124829 0.153282
v 0.278793 0.122972 0.118298
v 0.287442 0.114873 0.148374
v 0.269690 0.124829 0.139205
v 0.225511 0.133727 0.130494
v 0.246902 0.133727 0.109103
v 0.249887 0.130909 0.133478
v -0.313300 0.108614 -0.129578
v -0.226057 0.138037 -0.104423
v -0.251212 0.108614 -0.191666
v -0.287318 0.122972 -0.121598
v -0.295968 0.114873 -0.151674
v -0.278216 0.124829 -0.142505
v -0.234037 0.133727 -0.133794
v -0.255428 0.133727 -0.112403
v -0.258412 0.130909 -0.136778
v -0.273308 0.114873 -0.174334
v -0.243232 0.122972 -0.165684
v -0.264139 0.124829 -0.156582
v -0.251212 0.108614 0.188366
v -0.226057 0.138037 0.101123
v -0.313300 0.108614 0.126278
v -0.243232 0.122972 0.162384
v -0.273308 0.114873 0.171034
v -0.264139 0.124829 0.153282
v -0.255428 0.133727 0.109103
v -0.234037 0.133727 0.130494
v -0.258412 0.130909 0.133478
v -0.295968 0.114873 0.148374
v -0.287318 0.122972 0.118298
v -0.278216 0.124829 0.139205
v 0.187196 0.150846 0.132875
v 0.232816 0.060583 0.138862
v 0.249284 0.150846 0.070787
v 0.219156 0.129372 0.151741
v 0.209291 0.157105 0.115543
v 0.240577 0.133553 0.139693
v 0.228221 0.083314 0.112931
v 0.206885 0.083314 0.134268
v 0.213291 0.095261 0.119337
v 0.231951 0.157105 0.092883
v 0.268149 0.129372 0.102747
v 0.256101 0.133553 0.124169
v -0.195721 0.150846 0.132875
v -0.257809 0.150846 0.070787
v -0.241342 0.060583 0.138862
v -0.217817 0.157105 0.115543
v -0.227682 0.129372 0.151741
v -0.249103 0.133553 0.139693
v -0.276675 0.129372 0.102748
v -0.240477 0.157105 0.092883
v -0.264627 0.133553 0.124169
v -0.215411 0.083314 0.134268
v -0.236747 0.083314 0.112931
v -0.221816 0.095261 0.119337
v 0.249284 0.150846 -0.074088
v 0.232816 0.060583 -0.142162
v 0.187196 0.150846 -0.136175
v 0.268149 0.129372 -0.106048
v 0.231951 0.157105 -0.096183
v 0.256101 0.133553 -0.127469
v 0.206885 0.083314 -0.137568
v 0.228221 0.083314 -0.116232
v 0.213291 0.095261 -0.122637
v 0.209291 0.157105 -0.118843
v 0.219156 0.129372 -0.155041
v 0.240577 0.133553 -0.142993
v -0.257809 0.150846 -0.074088
v -0.195721 0.150846 -0.136175
v -0.241342 0.060583 -0.142162
v -0.240477 0.157105 -0.096183
v -0.276675 0.129372 -0.106048
v -0.264627 0.133553 -0.127469
v -0.227682 0.129372 -0.155041
v -0.217817 0.157105 -0.118843
v -0.249103 0.133553 -0.142993
v -0.236747 0.083314 -0.116232
v -0.215411 0.083314 -0.137568
v -0.221816 0.095261 -0.122637
v 0.232816 -0.033688 -0.130154
v -0.241342 -0.033688 -0.130154
v 0.232816 -0.009444 -0.127653
v -0.241342 -0.009444 -0.127653
v 0.232816 0.013868 -0.120247
v -0.241342 0.013868 -0.120247
v 0.228665 0.081123 0.049808
v -0.236747 0.083314 0.042240
v -0.237190 0.081123 0.049808
v 0.230986 0.069639 0.072310
v -0.239511 0.069639 0.072310
v 0.232816 0.060583 0.083867
v 0.232452 0.088194 0.025392
v 0.228221 0.083314 0.042240
v -0.240977 0.088194 0.025392
v 0.232816 0.054184 0.092033
v -0.241342 0.054184 0.092033
v 0.232816 -0.009444 0.127653
v -0.241342 -0.009444 0.127653
v 0.232816 -0.033688 0.130154
v -0.241342 -0.033688 0.130154
v -0.241342 0.060583 0.083867
v 0.232816 0.013868 0.120247
v -0.241342 0.013868 0.120247
v -0.241342 -0.100000 -0.109746
v 0.232816 -0.100000 -0.109746
v 0.232816 -0.057931 0.127653
v -0.241342 -0.057931 0.127653
v 0.232816 0.054184 -0.092033
v -0.241342 0.054184 -0.092033
v 0.232816 0.035353 -0.108219
v -0.241342 0.035353 -0.108219
v 0.232816 0.060583 -0.083867
v 0.230986 0.069639 -0.072310
v -0.241342 0.060583 -0.083867
v -0.239511 0.069639 -0.072310
v 0.234522 0.090582 -0.000000
v -0.243047 0.090582 -0.000000
v 0.232816 0.035353 0.108219
v -0.241342 0.035353 0.108219
v 0.232452 0.088194 -0.025392
v -0.240977 0.088194 -0.025392
v -0.241342 -0.100000 0.109746
v 0.232816 -0.100000 0.109746
v 0.232816 -0.081243 0.120247
v -0.241342 -0.081243 0.120247
v 0.228665 0.081122 -0.049808
v -0.237190 0.081122 -0.049808
v 0.232816 -0.081243 -0.120247
v -0.241342 -0.081243 -0.120247
v 0.228221 0.083314 -0.042240
v -0.236747 0.083314 -0.042240
v 0.232816 -0.057931 -0.127653
v -0.241342 -0.057931 -0.127653
vt 0.445417 0.907548
vt 0.445417 0.907548
vt 0.445417 0.907548
vt 0.445417 0.907548
vt 0.932395 0.945312
vt 0.932395 0.945312
vt 0.932395 0.945312
vt 0.932395 0.945313
vt 0.932395 0.945312
vt 0.932395 0.945313
vt 0.932395 0.945312
vt 0.932395 0.945313
vt 0.932395 0.945312
vt 0.932395 0.945312
vt 0.932395 0.945312
vt 0.932395 0.945312
vt 0.932395 0.945312
vt 0.932395 0.945312
vt 0.932395 0.945312
vt 0.932395 0.945312
vt 0.932395 0.945312
vt 0.932395 0.945312
vt 0.932395 0.945312
vt 0.445417 0.907548
vt 0.445417 0.907548
vt 0.445417 0.907548
vt 0.445417 0.907548
vt 0.936346 0.940600
vt 0.936346 0.940600
vt 0.936346 0.940600
vt 0.936346 0.940600
vt 0.932395 0.945312
vt 0.932395 0.945312
vt 0.932395 0.945312
vt 0.932395 0.945312
vt 0.932395 0.945312
vt 0.932395 0.945312
vt 0.932395 0.945312
vt 0.932395 0.945313
vt 0.445417 0.907548
vt 0.445417 0.907548
vt 0.445417 0.907548
vt 0.445417 0.907548
vt 0.870839 0.925781
vt 0.870839 0.925781
vt 0.870839 0.925781
vt 0.870839 0.925781
vt 0.870839 0.925781
vt 0.870839 0.925781
vt 0.870839 0.925781
vt 0.870839 0.925781
vt 0.870839 0.925781
vt 0.870839 0.925781
vt 0.445417 0.907548
vt 0.445417 0.907548
vt 0.445417 0.907548
vt 0.445417 0.907548
vt 0.870839 0.925781
vt 0.870839 0.925781
vt 0.870839 0.925781
vt 0.870839 0.925781
vt 0.870839 0.925781
vt 0.870839 0.925781
vt 0.870839 0.925781
vt 0.870839 0.925781
vt 0.870839 0.925781
vt 0.870839 0.925781
vt 0.870839 0.925781
vt 0.445417 0.907548
vt 0.445417 0.907548
vt 0.445417 0.907548
vt 0.445417 0.907548
vt 0.870839 0.925781
vt 0.870839 0.925781
vt 0.870839 0.925781
vt 0.870839 0.925781
vt 0.870839 0.925781
vt 0.870839 0.925781
vt 0.870839 0.925781
vt 0.445417 0.907548
vt 0.445417 0.907548
vt 0.445417 0.907548
vt 0.445417 0.907548
vt 0.870839 0.925781
vt 0.870839 0.925781
vt 0.870839 0.925781
vt 0.870839 0.925781
vt 0.870839 0.925781
vt 0.855640 0.762148
vt 0.852226 0.745279
vt 0.861170 0.740473
vt 0.865092 0.752049
vt 0.870839 0.925781
vt 0.870839 0.925781
vt 0.870839 0.925781
vt 0.870839 0.925781
vt 0.445417 0.907548
vt 0.445417 0.907548
vt 0.445417 0.907548
vt 0.445417 0.907548
vt 0.870839 0.925781
vt 0.870839 0.925781
vt 0.870839 0.925781
vt 0.882200 0.717335
vt 0.876215 0.733283
vt 0.869353 0.726665
vt 0.872202 0.711575
vt 0.858720 0.722531
vt 0.445417 0.907548
vt 0.445417 0.907548
vt 0.445417 0.907548
vt 0.870839 0.925781
vt 0.870839 0.925781
vt 0.870839 0.925781
vt 0.870839 0.925781
vt 0.870839 0.925781
vt 0.870839 0.925781
vt 0.870839 0.925781
vt 0.870839 0.925781
vt 0.445417 0.907548
vt 0.445417 0.907548
vt 0.445417 0.907548
vt 0.445417 0.907548
vt 0.445417 0.907548
vt 0.445417 0.907548
vt 0.445417 0.907548
vt 0.445417 0.907548
vt 0.445417 0.907548
vt 0.445417 0.907548
vt 0.870839 0.925781
vt 0.870839 0.925781
vt 0.870839 0.925781
vt 0.870839 0.925781
vt 0.870839 0.925781
vt 0.870839 0.925781
vt 0.870839 0.925781
vt 0.870839 0.925781
vt 0.445417 0.907548
vt 0.445417 0.907548
vt 0.445417 0.907548
vt 0.445417 0.907548
vt 0.870839 0.925781
vt 0.870839 0.925781
vt 0.870839 0.925781
vt 0.870839 0.925781
vt 0.870839 0.925781
vt 0.870839 0.925781
vt 0.870839 0.925781
vt 0.870839 0.925781
vt 0.445417 0.907548
vt 0.445417 0.907548
vt 0.445417 0.907548
vt 0.445417 0.907548
vt 0.445417 0.907548
vt 0.445417 0.907548
vt 0.445417 0.907548
vt 0.445417 0.907548
vt 0.445417 0.907548
vt 0.870839 0.925781
vt 0.870839 0.925781
vt 0.870839 0.925781
vt 0.870839 0.925781
vt 0.870839 0.925781
vt 0.870839 0.925781
vt 0.870839 0.925781
vt 0.870839 0.925781
vt 0.870839 0.925781
vt 0.870839 0.925781
vt 0.870839 0.925781
vt 0.870840 0.925781
vt 0.870839 0.925781
vt 0.870840 0.925781
vt 0.870839 0.925781
vt 0.870839 0.925781
vt 0.870839 0.925781
vt 0.870839 0.925781
vt 0.870840 0.925781
vt 0.870839 0.925781
vt 0.870839 0.925781
vt 0.870839 0.925781
vt 0.870839 0.925781
vt 0.870839 0.925781
vt 0.870839 0.925781
vt 0.870839 0.925781
vt 0.445417 0.907548
vt 0.445417 0.907548
vt 0.445417 0.907548
vt 0.445417 0.907548
vt 0.445417 0.907548
vt 0.445417 0.907548
vt 0.445417 0.907548
vt 0.445417 0.907548
vt 0.445417 0.907548
vt 0.445417 0.907548
vt 0.218750 0.665278
vt 0.218750 0.901577
vt 0.250000 0.902610
vt 0.250000 0.664245
vt 0.000000 0.665097
vt 0.000000 0.901759
vt 0.031250 0.901759
vt 0.031250 0.665096
vt 0.468750 0.665096
vt 0.468750 0.901759
vt 0.500000 0.901759
vt 0.500000 0.665096
vt 0.156250 0.666010
vt 0.156250 0.900846
vt 0.187500 0.899687
vt 0.187500 0.667169
vt 0.531250 0.901759
vt 0.531250 0.665096
vt 0.870839 0.925781
vt 0.870839 0.925781
vt 0.870840 0.925781
vt 0.062500 0.901759
vt 0.062500 0.665096
vt 0.406250 0.665096
vt 0.406250 0.901759
vt 0.437500 0.901759
vt 0.437500 0.665096
vt 0.937500 0.901759
vt 0.937500 0.665096
vt 0.910218 0.665097
vt 0.910218 0.901759
vt 0.093750 0.665096
vt 0.093750 0.901759
vt 0.125000 0.901759
vt 0.125000 0.665096
vt 0.197186 0.899466
vt 0.197186 0.667390
vt 0.932395 0.945312
vt 0.932395 0.945312
vt 0.932395 0.945313
vt 0.932395 0.945313
vt 0.932395 0.945312
vt 0.932395 0.945312
vt 0.932395 0.945312
vt 0.932395 0.945312
vt 0.870839 0.925781
vt 0.870839 0.925781
vt 0.870839 0.925781
vt 0.562500 0.665096
vt 0.562500 0.901759
vt 0.589782 0.901759
vt 0.589782 0.665096
vt 0.375000 0.665096
vt 0.375000 0.901759
vt 0.312500 0.667169
vt 0.312500 0.899687
vt 0.343750 0.900846
vt 0.343750 0.666010
vt 0.968750 0.665096
vt 0.968750 0.901759
vt 1.000000 0.901759
vt 1.000000 0.665097
vt 0.281250 0.901577
vt 0.281250 0.665278
vt 0.932395 0.945312
vt 0.932395 0.945312
vt 0.932395 0.945312
vt 0.932395 0.945312
vt 0.932395 0.945312
vt 0.932395 0.945312
vt 0.932395 0.945312
vt 0.932395 0.945312
vt 0.932395 0.945312
vt 0.302814 0.899466
vt 0.302814 0.667390
vt 0.137938 0.901759
vt 0.137938 0.665096
vt 0.362062 0.901759
vt 0.362062 0.665096
vn -0.0000 -0.7958 0.6056
vn -1.0000 -0.0000 -0.0000
vn -0.0000 0.0000 -1.0000
vn -0.0000 -1.0000 -0.0000
vn 0.0000 -0.0000 1.0000
vn 0.6056 -0.7958 -0.0000
vn 0.0000 1.0000 0.0000
vn 1.0000 0.0000 -0.0000
vn -0.0000 -0.7958 -0.6056
vn 0.4499 0.8864 -0.1093
vn 0.3277 0.8861 -0.3277
vn 0.1093 0.8864 -0.4499
vn 0.0599 0.9541 -0.2934
vn 0.1088 0.9881 -0.1088
vn 0.2934 0.9541 -0.0599
vn 0.2257 0.9477 -0.2257
vn 0.1093 0.8864 0.4499
vn 0.3277 0.8861 0.3277
vn 0.4499 0.8864 0.1093
vn 0.2934 0.9541 0.0599
vn 0.1088 0.9881 0.1088
vn 0.0599 0.9541 0.2934
vn 0.2257 0.9477 0.2257
vn -0.4499 0.8864 -0.1093
vn -0.2934 0.9541 -0.0599
vn -0.1088 0.9881 -0.1088
vn -0.0599 0.9541 -0.2934
vn -0.1093 0.8864 -0.4499
vn -0.3277 0.8861 -0.3277
vn -0.2257 0.9477 -0.2257
vn -0.1093 0.8864 0.4499
vn -0.0599 0.9541 0.2934
vn -0.1088 0.9881 0.1088
vn -0.2934 0.9541 0.0599
vn -0.4499 0.8864 0.1093
vn -0.3277 0.8861 0.3277
vn -0.2257 0.9477 0.2257
vn 0.1883 0.8037 0.5644
vn 0.7273 -0.5343 0.4308
vn 0.5532 0.6229 0.5532
vn 0.5008 -0.4441 0.7429
vn 0.5644 0.8037 0.1883
vn 0.3642 0.8572 0.3642
vn 0.5309 -0.6605 0.5309
vn -0.1883 0.8037 0.5644
vn -0.3642 0.8572 0.3642
vn -0.5644 0.8037 0.1883
vn -0.5008 -0.4441 0.7429
vn -0.5532 0.6229 0.5532
vn -0.7273 -0.5343 0.4308
vn -0.5309 -0.6605 0.5309
vn 0.5644 0.8037 -0.1883
vn 0.5008 -0.4441 -0.7429
vn 0.5532 0.6229 -0.5532
vn 0.7273 -0.5343 -0.4308
vn 0.1883 0.8037 -0.5644
vn 0.3642 0.8572 -0.3642
vn 0.5309 -0.6605 -0.5309
vn -0.5644 0.8037 -0.1883
vn -0.3642 0.8572 -0.3642
vn -0.1883 0.8037 -0.5644
vn -0.7273 -0.5343 -0.4308
vn -0.5532 0.6229 -0.5532
vn -0.5008 -0.4441 -0.7429
vn -0.5309 -0.6605 -0.5309
vn 0.0000 0.6600 0.7513
vn -0.0000 -0.3547 0.9350
vn 0.0000 0.1981 0.9802
vn 0.7513 0.6600 0.0000
vn 0.7556 -0.6550 -0.0000
vn 0.9802 0.1981 -0.0000
vn -0.7513 0.6600 0.0000
vn -0.7556 -0.6550 -0.0000
vn -0.9802 0.1981 0.0000
vn 0.0000 0.6600 -0.7513
vn -0.0000 -0.3547 -0.9350
vn 0.0000 0.1981 -0.9802
vn 0.0000 0.9894 0.1452
vn 0.0000 0.9476 0.3196
vn 0.0000 0.8753 0.4837
vn 0.1452 0.9894 0.0000
vn 0.3196 0.9476 0.0000
vn 0.4837 0.8753 0.0000
vn -0.1452 0.9894 0.0000
vn -0.3196 0.9476 0.0000
vn -0.4837 0.8753 0.0000
vn 0.0000 0.9894 -0.1452
vn 0.0000 0.9476 -0.3196
vn 0.0000 0.8753 -0.4837
vn -0.4994 -0.8533 -0.1500
vn -0.3351 -0.8806 -0.3351
vn -0.1500 -0.8533 -0.4994
vn 0.4994 -0.8533 -0.1500
vn 0.3351 -0.8806 -0.3351
vn 0.1500 -0.8533 -0.4994
vn -0.1500 -0.8533 0.4994
vn -0.3351 -0.8806 0.3351
vn -0.4994 -0.8533 0.1500
vn 0.1500 -0.8533 0.4994
vn 0.3351 -0.8806 0.3351
vn 0.4994 -0.8533 0.1500
vn -0.6056 -0.7958 -0.0000
vn -0.0000 -0.9956 0.0936
vn -0.0000 -0.1026 0.9947
vn -0.0000 -0.1026 -0.9947
vn -0.0000 -0.8907 0.4546
vn 0.0000 0.1026 -0.9947
vn -0.0000 -0.3028 0.9531
vn -0.0000 -0.4885 -0.8726
vn 0.0000 0.4885 0.8726
vn -0.0000 -0.6518 0.7584
vn -0.0000 -0.9605 0.2782
vn 0.0000 0.4885 -0.8726
vn -0.0000 -0.6518 -0.7584
vn -0.0000 -0.8907 -0.4546
vn -0.0000 0.1026 0.9947
vn -0.0000 -0.9956 -0.0936
vn -0.0000 -0.3028 -0.9531
vn -0.0000 -0.4885 0.8726
vn 0.0000 0.3028 0.9531
vn -0.0000 -0.9605 -0.2782
vn 0.0000 0.3028 -0.9531
vn -0.0000 -0.7871 0.6168
vn -0.0000 -0.7871 -0.6168
usemtl Material.001
s 1
f 31/1/1 6/2/1 79/3/1 90/4/1
f 4/5/2 67/6/2 122/7/2 117/8/2 140/9/2 124/10/2 119/11/2 121/12/2 128/13/2 146/14/2 143/15/2
f 3/16/3 91/17/3 78/18/3 1/19/3
f 3/16/4 1/19/4 126/20/4 125/21/4
f 2/22/5 54/23/5 67/6/5 4/5/5
f 43/24/6 29/25/6 89/26/6 66/27/6
f 7/28/7 30/29/7 42/30/7 19/31/7
f 1/19/8 78/18/8 133/32/8 129/33/8 131/34/8 105/35/8 103/36/8 101/37/8 153/38/8 149/39/8 126/20/8
f 17/40/9 41/41/9 65/42/9 53/43/9
f 5/44/10 8/45/10 10/46/10 9/47/10
f 8/45/11 12/48/11 13/49/11 10/46/11
f 6/50/12 11/51/12 13/49/12 12/48/12
f 11/51/13 15/52/13 16/53/13 13/49/13
f 7/54/14 14/55/14 16/56/14 15/57/14
f 14/58/15 9/47/15 10/46/15 16/53/15
f 10/46/16 13/49/16 16/53/16
f 17/59/17 20/60/17 22/61/17 21/62/17
f 20/60/18 24/63/18 25/64/18 22/61/18
f 18/65/19 23/66/19 25/64/19 24/63/19
f 23/66/20 27/67/20 28/68/20 25/64/20
f 19/69/21 26/70/21 28/71/21 27/72/21
f 26/73/22 21/62/22 22/61/22 28/68/22
f 22/61/23 25/64/23 28/68/23
f 29/74/24 32/75/24 34/76/24 33/77/24
f 32/75/25 36/78/25 37/79/25 34/76/25
f 30/80/26 35/81/26 37/82/26 36/83/26
f 35/84/27 39/85/27 40/86/27 37/79/27
f 31/87/28 38/88/28 40/86/28 39/85/28
f 38/88/29 33/77/29 34/76/29 40/86/29
f 34/76/30 37/79/30 40/86/30
f 41/89/31 44/90/31 46/91/31 45/92/31
f 44/93/32 48/94/32 49/95/32 46/96/32
f 42/97/33 47/98/33 49/99/33 48/100/33
f 47/101/34 51/102/34 52/103/34 49/95/34
f 43/104/35 50/105/35 52/106/35 51/107/35
f 50/105/36 45/92/36 46/91/36 52/106/36
f 46/91/37 49/108/37 52/106/37
f 53/43/38 56/109/38 58/110/38 57/111/38
f 56/112/39 60/113/39 61/114/39 58/115/39
f 54/116/40 59/117/40 61/114/40 60/113/40
f 59/117/41 63/118/41 64/119/41 61/114/41
f 55/120/42 62/121/42 64/122/42 63/123/42
f 62/121/43 57/111/43 58/110/43 64/122/43
f 58/115/44 61/114/44 64/119/44
f 65/42/45 68/124/45 70/125/45 69/126/45
f 68/124/46 72/127/46 73/128/46 70/125/46
f 66/27/47 71/129/47 73/128/47 72/127/47
f 71/130/48 75/131/48 76/132/48 73/133/48
f 67/134/49 74/135/49 76/132/49 75/131/49
f 74/135/50 69/136/50 70/137/50 76/132/50
f 70/137/51 73/133/51 76/132/51
f 77/138/52 80/139/52 82/140/52 81/141/52
f 80/142/53 84/143/53 85/144/53 82/145/53
f 78/146/54 83/147/54 85/144/54 84/143/54
f 83/147/55 87/148/55 88/149/55 85/144/55
f 79/3/56 86/150/56 88/151/56 87/152/56
f 86/150/57 81/141/57 82/140/57 88/151/57
f 82/145/58 85/144/58 88/149/58
f 89/26/59 92/153/59 94/154/59 93/155/59
f 92/153/60 96/156/60 97/157/60 94/154/60
f 90/4/61 95/158/61 97/157/61 96/156/61
f 95/159/62 99/160/62 100/161/62 97/162/62
f 91/163/63 98/164/63 100/161/63 99/160/63
f 98/164/64 93/165/64 94/166/64 100/161/64
f 94/166/65 97/162/65 100/161/65
f 53/43/66 65/42/66 69/126/66 56/109/66
f 56/112/67 69/136/67 74/135/67 60/113/67
f 60/113/68 74/135/68 67/134/68 54/116/68
f 77/138/69 55/120/69 63/123/69 80/139/69
f 80/142/70 63/118/70 59/117/70 114/167/70 113/168/70 137/169/70 141/170/70 151/171/70 84/143/70
f 84/143/71 151/171/71 147/172/71 134/173/71 133/174/71 78/146/71
f 66/27/72 89/26/72 93/155/72 71/129/72
f 71/130/73 93/165/73 98/164/73 152/175/73 142/176/73 138/177/73 115/178/73 108/179/73 75/131/73
f 75/131/74 108/179/74 109/180/74 111/181/74 122/182/74 67/134/74
f 90/4/75 79/3/75 87/152/75 95/158/75
f 95/159/76 87/148/76 83/147/76 99/160/76
f 99/160/77 83/147/77 78/146/77 91/163/77
f 19/69/78 42/97/78 48/100/78 26/70/78
f 26/73/79 48/94/79 44/93/79 21/62/79
f 21/62/80 44/93/80 41/183/80 17/59/80
f 7/54/81 19/69/81 27/72/81 14/55/81
f 14/58/82 27/67/82 23/66/82 9/47/82
f 9/47/83 23/66/83 18/65/83 5/44/83
f 42/97/84 30/80/84 36/83/84 47/98/84
f 47/101/85 36/78/85 32/75/85 51/102/85
f 51/102/86 32/75/86 29/74/86 43/184/86
f 30/80/87 7/54/87 15/57/87 35/81/87
f 35/84/88 15/52/88 11/51/88 39/85/88
f 39/85/89 11/51/89 6/50/89 31/87/89
f 55/120/90 18/185/90 24/186/90 62/121/90
f 62/121/91 24/186/91 20/187/91 57/111/91
f 57/111/92 20/187/92 17/40/92 53/43/92
f 43/24/93 66/27/93 72/127/93 50/188/93
f 50/188/94 72/127/94 68/124/94 45/189/94
f 45/189/95 68/124/95 65/42/95 41/41/95
f 79/3/96 6/2/96 12/190/96 86/150/96
f 86/150/97 12/190/97 8/191/97 81/141/97
f 81/141/98 8/191/98 5/192/98 77/138/98
f 31/1/99 90/4/99 96/156/99 38/193/99
f 38/193/100 96/156/100 92/153/100 33/194/100
f 33/194/101 92/153/101 89/26/101 29/25/101
f 5/192/102 18/185/102 55/120/102 77/138/102
f 142/195/103 141/196/103 137/197/103 138/198/103
f 102/199/104 101/200/104 103/201/104 104/202/104
f 119/203/105 118/204/105 120/205/105 121/206/105
f 136/207/106 134/208/106 147/209/106 148/210/106
f 121/206/107 120/205/107 127/211/107 128/212/107
f 135/213/74 136/214/74 148/215/74 152/175/74 98/164/74 91/163/74
f 104/202/108 103/201/108 105/216/108 106/217/108
f 140/218/109 139/219/109 123/220/109 124/221/109
f 149/222/110 150/223/110 125/224/110 126/225/110
f 132/226/111 131/227/111 129/228/111 130/229/111
f 148/210/112 147/209/112 151/230/112 141/196/112 142/195/112 152/231/112
f 125/21/2 150/232/2 154/233/2 102/234/2 104/235/2 106/236/2 132/237/2 130/238/2 135/239/2 91/17/2 3/16/2
f 112/240/71 110/241/71 107/242/71 114/167/71 59/117/71 54/116/71
f 146/243/113 145/244/113 144/245/113 143/246/113
f 117/247/114 116/248/114 139/219/114 140/218/114
f 109/249/115 107/250/115 110/251/115 111/252/115
f 154/253/116 153/254/116 101/255/116 102/256/116
f 138/198/117 137/197/117 113/257/117 115/258/117
f 144/259/8 145/260/8 127/261/8 120/262/8 118/263/8 123/264/8 139/265/8 116/266/8 112/267/8 54/23/8 2/22/8
f 124/221/118 123/220/118 118/204/118 119/203/118
f 143/15/4 144/259/4 2/22/4 4/5/4
f 106/217/119 105/216/119 131/227/119 132/226/119
f 150/223/120 149/222/120 153/254/120 154/253/120
f 115/258/121 113/257/121 114/268/121 107/250/121 109/249/121 108/269/121
f 128/212/122 127/211/122 145/244/122 146/243/122
f 130/229/123 129/228/123 133/270/123 134/208/123 136/207/123 135/271/123
f 111/252/124 110/251/124 112/272/124 116/248/124 117/247/124 122/273/124
